<svg width="183" height="82" viewBox="0 0 183 82" fill="none" xmlns="http://www.w3.org/2000/svg">
<g clip-path="url(#clip0_2919_1167)">
<mask id="mask0_2919_1167" style="mask-type:alpha" maskUnits="userSpaceOnUse" x="0" y="0" width="183" height="82">
<path d="M0 0H183V82H0V0Z" fill="#C8BBAC"/>
</mask>
<g mask="url(#mask0_2919_1167)">
<path d="M15 31.4834C20.5228 31.4834 25 35.9606 25 41.4834C25 47.0062 20.5228 51.4834 15 51.4834C9.47715 51.4834 5 47.0062 5 41.4834C5 35.9606 9.47715 31.4834 15 31.4834Z" stroke="white" stroke-width="3"/>
<path d="M115.42 66.9834C98.8171 50.8581 87.2523 45.1298 62.5 40.9834C87.2523 36.837 98.8171 31.1086 115.42 14.9834L160.5 40.9834L115.42 66.9834Z" stroke="white" stroke-width="3"/>
<path d="M154.5 55.9834C142 47.4834 139 45.4834 123.5 40.9834C137.5 37.4834 143 33.4834 155.5 25.4834L183 40.9834L154.5 55.9834Z" stroke="white" stroke-width="3"/>
<path d="M29.6814 60.223C27.2334 77.2975 50.3324 80.5718 58.4174 69.6862C62.6114 64.0378 63.4514 57.5585 61.0044 51.4413C59.5364 47.7709 56.1004 44.923 52.9084 43.5006C49.7164 42.0782 43.2914 41.0187 39.5004 40.9831C43.2914 40.9475 49.7164 39.9049 52.9084 38.4824C56.1004 37.06 59.5364 34.2121 61.0044 30.5418C63.4514 24.4246 62.6114 17.9453 58.4174 12.2969C50.3324 1.41133 27.2334 4.6856 29.6814 21.76M29.6814 60.223C29.7514 59.7343 29.8424 59.2342 29.9544 58.7228M29.6814 60.223C29.7254 59.7162 29.8184 59.2146 29.9544 58.7228M29.6814 60.223C29.6714 60.3274 29.6644 60.4319 29.6594 60.5366M29.6814 21.76C29.7514 22.2488 29.8424 22.7489 29.9544 23.2603M29.6814 21.76C29.7254 22.2668 29.8184 22.7684 29.9544 23.2603M29.6814 21.76C29.6714 21.6557 29.6644 21.5512 29.6594 21.4464M29.9544 58.7228C29.9814 58.6037 30.0084 58.4839 30.0374 58.3635M29.9544 58.7228C31.6474 52.6107 39.9754 48.0063 44.0684 53.6138C46.9604 57.5761 44.3114 63.4274 38.0394 62.854M29.9544 23.2603C29.9814 23.3794 30.0084 23.4992 30.0374 23.6195M29.9544 23.2603C31.6474 29.3724 39.9754 33.9768 44.0684 28.3693C46.9604 24.407 44.3114 18.5556 38.0394 19.129" stroke="white" stroke-width="3"/>
<path d="M40.5 40.9834C36.566 40.9834 28.867 40.9834 29.542 40.9834" stroke="white" stroke-width="3"/>
</g>
</g>
<defs>
<clipPath id="clip0_2919_1167">
<rect width="183" height="82" fill="white" transform="matrix(-1 0 0 1 183 0)"/>
</clipPath>
</defs>
</svg>
