<svg width="183" height="82" viewBox="0 0 183 82" fill="none" xmlns="http://www.w3.org/2000/svg">
<g clip-path="url(#clip0_2918_1157)">
<mask id="mask0_2918_1157" style="mask-type:alpha" maskUnits="userSpaceOnUse" x="0" y="0" width="183" height="82">
<path d="M183 0H0V82H183V0Z" fill="#C8BBAC"/>
</mask>
<g mask="url(#mask0_2918_1157)">
<path d="M168 31.4834C162.477 31.4834 158 35.9606 158 41.4834C158 47.0062 162.477 51.4834 168 51.4834C173.523 51.4834 178 47.0062 178 41.4834C178 35.9606 173.523 31.4834 168 31.4834Z" stroke="white" stroke-width="3"/>
<path d="M67.58 66.9834C84.1829 50.8581 95.7477 45.1298 120.5 40.9834C95.7477 36.837 84.1829 31.1086 67.58 14.9834L22.5 40.9834L67.58 66.9834Z" stroke="white" stroke-width="3"/>
<path d="M28.5 55.9834C41 47.4834 44 45.4834 59.5 40.9834C45.5 37.4834 40 33.4834 27.5 25.4834L0 40.9834L28.5 55.9834Z" stroke="white" stroke-width="3"/>
<path d="M153.319 60.223C155.767 77.2975 132.668 80.5718 124.583 69.6862C120.389 64.0378 119.549 57.5585 121.996 51.4413C123.464 47.7709 126.9 44.923 130.092 43.5006C133.284 42.0782 139.709 41.0187 143.5 40.9831C139.709 40.9475 133.284 39.9049 130.092 38.4824C126.9 37.06 123.464 34.2121 121.996 30.5418C119.549 24.4246 120.389 17.9453 124.583 12.2969C132.668 1.41133 155.767 4.6856 153.319 21.76M153.319 60.223C153.249 59.7343 153.158 59.2342 153.046 58.7228M153.319 60.223C153.275 59.7162 153.182 59.2146 153.046 58.7228M153.319 60.223C153.329 60.3274 153.336 60.4319 153.341 60.5366M153.319 21.76C153.249 22.2488 153.158 22.7489 153.046 23.2603M153.319 21.76C153.275 22.2668 153.182 22.7684 153.046 23.2603M153.319 21.76C153.329 21.6557 153.336 21.5512 153.341 21.4464M153.046 58.7228C153.019 58.6037 152.992 58.4839 152.963 58.3635M153.046 58.7228C151.353 52.6107 143.025 48.0063 138.932 53.6138C136.04 57.5761 138.689 63.4274 144.961 62.854M153.046 23.2603C153.019 23.3794 152.992 23.4992 152.963 23.6195M153.046 23.2603C151.353 29.3724 143.025 33.9768 138.932 28.3693C136.04 24.407 138.689 18.5556 144.961 19.129" stroke="white" stroke-width="3"/>
<path d="M142.5 40.9834C146.434 40.9834 154.133 40.9834 153.458 40.9834" stroke="white" stroke-width="3"/>
</g>
</g>
<defs>
<clipPath id="clip0_2918_1157">
<rect width="183" height="82" fill="white"/>
</clipPath>
</defs>
</svg>
