<svg width="259" height="262" viewBox="0 0 259 262" fill="none" xmlns="http://www.w3.org/2000/svg">
<path d="M127.255 259.302C126.958 260.212 126.799 261.756 122.723 261.597C118.923 261.439 119.378 253.998 119.477 250.297C120.051 228.647 115.044 208.243 106.653 187.76C106.376 187.107 105.683 186.672 104.971 186.771C85.8734 189.126 73.4056 202.682 64.0646 209.411C62.2637 211.093 57.0787 214.813 54.882 212.557C53.0415 210.697 55.5549 206.126 56.7423 204.899C68.9924 192.035 72.9307 175.827 75.1274 159.065C75.444 156.611 72.6734 152.593 70.2392 151.109C52.8436 140.521 33.568 135.772 13.4612 133.674C9.523 133.258 7.22739 133.555 3.24958 132.368C1.96322 131.992 -0.0355977 130.211 0.0237728 128.885C0.0237728 128.885 -0.58978 126.807 4.41713 125.896C7.00964 125.421 11.0864 124.689 13.5998 124.768C33.192 123.482 46.6692 120.889 64.3616 114.596C70.0413 112.578 72.0203 109.372 71.7432 103.613C70.9516 87.9389 64.599 74.4816 55.832 61.8951C52.8239 57.5808 49.3804 53.4842 46.867 48.9127C46.4514 48.1409 46.2536 47.2306 46.1744 46.2806C45.9369 43.5298 48.3909 41.2737 51.1219 41.6893C52.4083 41.8872 53.6155 42.2039 54.5456 42.8965C63.5105 49.5658 71.5256 57.6204 80.8468 63.6762C106.059 80.0426 110.195 78.3802 118.507 49.8231C123 34.4065 126.661 18.7525 131.232 3.3756C131.292 3.19749 131.351 3.01937 131.411 2.84126C133.033 -1.6511 139.722 -0.542851 139.762 4.24636C139.94 30.0527 144.136 54.6519 154.723 78.5188C155.06 79.2708 155.911 79.6468 156.682 79.3895C175.008 73.4129 190.167 61.6774 205.485 50.1595C208.889 47.6066 212.115 44.7766 215.717 42.5205C215.875 42.4215 216.073 42.3226 216.271 42.2632C218.764 41.432 221.357 43.8464 220.763 46.3994C220.684 46.7358 220.565 47.0524 220.347 47.2899C216.37 52.1187 212.075 56.6902 207.721 61.1826C196.223 72.9775 188.228 86.2171 186.19 103.197C185.398 109.787 186.942 112.894 192.423 113.844C212.372 117.307 232.4 120.276 252.388 123.502C254.149 123.779 255.91 124.175 257.79 124.63C259.314 125.006 259.413 127.143 257.929 127.658C235.071 135.534 214.213 142.857 193.235 149.803C185.002 152.534 183.34 157.244 186.882 164.566C194.561 180.458 202.378 196.27 209.878 212.261C210.63 213.883 210.531 215.902 210.492 217.901C210.492 218.93 209.483 219.642 208.513 219.365C206.316 218.712 204.021 218.178 202.517 216.773C191.434 206.561 180.965 195.676 169.704 185.702C162.56 179.369 155.495 182.496 152.269 190.135C145.323 206.66 139.505 223.679 133.409 240.56C130.896 247.546 131.054 247.606 128.798 254.691L127.314 259.361L127.255 259.302ZM101.646 134.663C101.686 150.298 110.037 159.084 125.018 159.183C137.941 159.282 153.437 148.18 157.613 135.851C162.263 122.136 154.328 105.275 141.88 102.386C121.694 97.735 101.607 113.844 101.646 134.663Z" fill="#004A5A"/>
</svg>
